<svg width="57" height="79" viewBox="0 0 57 79" fill="none" xmlns="http://www.w3.org/2000/svg">
<path d="M57 28.5C57 54.2401 28.5 78.5 28.5 78.5C28.5 78.5 0 54.2401 0 28.5C0 12.7599 12.7599 0 28.5 0C44.2401 0 57 12.7599 57 28.5Z" fill="black"/>
<path d="M17.4954 26.7903V22.583C17.95 22.583 18.3868 22.5117 18.7434 22.5117C20.9094 22.5117 21.6671 23.4922 21.6671 24.6867C21.6671 25.8811 20.9183 26.8527 18.7166 26.8527C18.3244 26.8527 17.9144 26.826 17.4954 26.7903ZM18.3066 26.3803H18.8593C20.1963 26.3803 20.847 25.7385 20.847 24.6599C20.847 23.5814 20.1874 22.9396 18.8771 22.9396C18.6871 22.9274 18.4966 22.9274 18.3066 22.9396V26.3803Z" fill="white"/>
<path d="M26.4448 26.7903L26.0259 25.899H24.2431L23.8242 26.7903H22.9328L25.1167 22.5117L27.2649 26.7903H26.4448ZM24.4125 25.4711H25.8298L25.188 24.036C25.1608 23.9798 25.1428 23.9196 25.1345 23.8577C25.1345 23.8577 25.0899 23.9914 25.0721 24.036L24.4125 25.4711Z" fill="white"/>
<path d="M29.7164 26.7905H28.9053V22.5743H29.7164V26.7905Z" fill="white"/>
<path d="M34.2534 26.7905H31.8823V22.5743H32.7737V26.3537H34.298L34.2534 26.7905Z" fill="white"/>
<path d="M37.9615 26.7905H37.1592V25.0078L35.3765 22.5743H36.2143L37.5158 24.4462L38.8172 22.5743H39.6551L37.9258 25.0078L37.9615 26.7905Z" fill="white"/>
<path d="M10.3961 30.4954C10.3961 31.1283 10.0218 31.5383 9.29084 31.7255L10.6457 33.437H9.75435L8.47077 31.8147H8.32815C8.15592 31.8238 7.98336 31.8238 7.81116 31.8147V33.4637H7V29.2831C7.41494 29.2104 7.83557 29.1746 8.25683 29.1762C9.76326 29.1584 10.3961 29.6843 10.3961 30.4954ZM7.82007 31.3868C7.98931 31.3959 8.15891 31.3959 8.32815 31.3868C9.21951 31.3868 9.56716 31.0481 9.56716 30.4954C9.56716 29.9428 9.17494 29.604 8.32815 29.604C8.15898 29.5929 7.98924 29.5929 7.82007 29.604V31.3868Z" fill="white"/>
<path d="M12.3393 33.4371V29.2209H15.2632V29.6576H13.1505V31.066H14.9334V31.5028H13.1505V32.9825H15.2632V33.4193L12.3393 33.4371Z" fill="white"/>
<path d="M20.0321 31.9572L21.6633 29.1494L23.0182 33.428H22.2515L21.4135 30.843L19.8627 33.5171L18.3206 30.8876L17.4917 33.4547H16.7159L18.0799 29.1761L19.702 31.9572C19.7736 32.0768 19.8274 32.2058 19.8627 32.3405C19.905 32.207 19.9618 32.0785 20.0321 31.9572Z" fill="white"/>
<path d="M25.5139 33.4371H24.765L26.1111 29.2209H26.8597L25.5139 33.4371Z" fill="white"/>
<path d="M33.278 33.4993L29.4092 30.4597V33.4369H28.6425V29.1583L32.52 32.1979V29.2207H33.278V33.4993Z" fill="white"/>
<path d="M35.4795 33.4369V29.2296C35.934 29.2296 36.3709 29.1583 36.7276 29.1583C38.8845 29.1583 39.6511 30.1388 39.6511 31.3333C39.6511 32.5277 38.8935 33.4993 36.7007 33.4993C36.3084 33.4993 35.8984 33.4726 35.4795 33.4369ZM36.2906 33.0269H36.8432C38.1803 33.0269 38.8223 32.3851 38.8223 31.3065C38.8223 30.228 38.1715 29.5862 36.861 29.5862C36.6711 29.5738 36.4805 29.5738 36.2906 29.5862V33.0269Z" fill="white"/>
<path d="M41.5321 33.4371V29.2209H44.4469V29.6576H42.3431V31.066H44.1259V31.5028H42.3431V32.9825H44.4469V33.4193L41.5321 33.4371Z" fill="white"/>
<path d="M49.7593 30.4954C49.7593 31.1283 49.3849 31.5383 48.6451 31.7255L50 33.437H49.1086L47.834 31.8147H47.1655V33.4637H46.3544V29.2831C46.7692 29.2104 47.1897 29.1746 47.6112 29.1762C49.1177 29.1584 49.7593 29.6843 49.7593 30.4954ZM47.1742 31.3868H47.6824C48.5738 31.3868 48.9305 31.0481 48.9305 30.4954C48.9305 29.9428 48.5291 29.604 47.6824 29.604C47.5134 29.5932 47.3436 29.5932 47.1742 29.604V31.3868Z" fill="white"/>
</svg>
