<svg width="337" height="86" viewBox="0 0 337 86" fill="none" xmlns="http://www.w3.org/2000/svg">
<path d="M82.0142 33.4342V0.557223C85.5665 0.557223 88.9796 0 91.7658 0C108.692 0 114.612 7.662 114.612 16.9957C114.612 26.3294 108.762 33.9217 91.5569 33.9217C88.4921 33.9217 85.2879 33.7129 82.0142 33.4342ZM88.3527 30.2301H92.6713C103.12 30.2301 108.204 25.215 108.204 16.7868C108.204 8.35856 103.05 3.34341 92.8107 3.34341C91.3262 3.24822 89.8371 3.24822 88.3527 3.34341V30.2301Z" fill="#1C1C1C"/>
<path d="M151.947 33.4342L148.673 26.4689H134.742L131.469 33.4342H124.503L141.569 0L158.355 33.4342H151.947ZM136.066 23.1253H147.141L142.126 11.9109C141.913 11.4717 141.772 11.0014 141.708 10.5178C141.708 10.5178 141.36 11.5627 141.22 11.9109L136.066 23.1253Z" fill="#1C1C1C"/>
<path d="M177.511 33.4339H171.172V0.487305H177.511V33.4339Z" fill="#1C1C1C"/>
<path d="M212.965 33.4339H194.437V0.487305H201.402V30.0207H213.313L212.965 33.4339Z" fill="#1C1C1C"/>
<path d="M241.941 33.4339H235.672V19.503L221.741 0.487305H228.289L238.458 15.1148L248.628 0.487305H255.176L241.663 19.503L241.941 33.4339Z" fill="#1C1C1C"/>
<path d="M26.5384 62.3865C26.5384 67.332 23.6129 70.5361 17.9012 71.9989L28.4888 85.3726H21.5232L11.493 72.6954H10.3785C9.03269 72.7666 7.68422 72.7666 6.33864 72.6954V85.5814H0V52.9135C3.24247 52.3453 6.52934 52.0656 9.82119 52.0777C21.5928 51.9383 26.5384 56.048 26.5384 62.3865ZM6.40826 69.352C7.73072 69.4232 9.05607 69.4232 10.3785 69.352C17.3439 69.352 20.0605 66.7051 20.0605 62.3865C20.0605 58.0679 16.9956 55.4211 10.3785 55.4211C9.05659 55.3341 7.7302 55.3341 6.40826 55.4211V69.352Z" fill="#1C1C1C"/>
<path d="M41.7231 85.3734V52.4268H64.5707V55.8398H48.0618V66.8453H61.994V70.2584H48.0618V81.821H64.5707V85.2342L41.7231 85.3734Z" fill="#1C1C1C"/>
<path d="M101.836 73.8104L114.583 51.8691L125.171 85.3035H119.179L112.631 65.1035L100.513 86L88.462 65.4518L81.9849 85.5123H75.9229L86.5814 52.0781L99.2571 73.8104C99.8165 74.7444 100.237 75.7528 100.513 76.8055C100.844 75.7625 101.287 74.7584 101.836 73.8104Z" fill="#1C1C1C"/>
<path d="M144.672 85.3734H138.82L149.34 52.4268H155.189L144.672 85.3734Z" fill="#1C1C1C"/>
<path d="M205.343 85.8611L175.111 62.109V85.3737H169.12V51.9395L199.42 75.6917V52.427H205.343V85.8611Z" fill="#1C1C1C"/>
<path d="M222.547 85.3737V52.4967C226.098 52.4967 229.512 51.9395 232.299 51.9395C249.154 51.9395 255.145 59.6015 255.145 68.9352C255.145 78.2689 249.225 85.8611 232.089 85.8611C229.024 85.8611 225.82 85.6523 222.547 85.3737ZM228.885 82.1695H233.203C243.651 82.1695 248.668 77.1544 248.668 68.7262C248.668 60.298 243.583 55.2829 233.342 55.2829C231.858 55.1861 230.369 55.1861 228.885 55.2829V82.1695Z" fill="#1C1C1C"/>
<path d="M269.843 85.3734V52.4268H292.621V55.8398H276.181V66.8453H290.112V70.2584H276.181V81.821H292.621V85.2342L269.843 85.3734Z" fill="#1C1C1C"/>
<path d="M334.133 62.3865C334.133 67.332 331.207 70.5361 325.426 71.9989L336.014 85.3726H329.048L319.088 72.6954H317.904H313.864V85.5814H307.526V52.9135C310.768 52.3453 314.053 52.0656 317.347 52.0777C329.119 51.9383 334.133 56.048 334.133 62.3865ZM313.932 69.352H317.904C324.869 69.352 327.656 66.7051 327.656 62.3865C327.656 58.0679 324.52 55.4211 317.904 55.4211C316.583 55.3362 315.256 55.3362 313.932 55.4211V69.352Z" fill="#1C1C1C"/>
</svg>
