<svg width="203" height="13" viewBox="0 0 203 13" fill="none" xmlns="http://www.w3.org/2000/svg">
<path d="M0.958008 12.2726V0.229505C2.25927 0.229505 3.50951 0.0253906 4.5301 0.0253906C10.7303 0.0253906 12.899 2.83203 12.899 6.25104C12.899 9.67003 10.7558 12.4511 4.45357 12.4511C3.33091 12.4511 2.15722 12.3747 0.958008 12.2726ZM3.27986 11.0989H4.8618C8.68904 11.0989 10.5516 9.2618 10.5516 6.1745C10.5516 3.08719 8.66353 1.2501 4.91284 1.2501C4.36907 1.21524 3.82362 1.21524 3.27986 1.2501V11.0989Z" fill="#1C1C1C"/>
<path d="M26.5748 12.2726L25.3756 9.72112H20.2726L19.0734 12.2726H16.522L22.7731 0.0253906L28.9222 12.2726H26.5748ZM20.7574 8.49636H24.8143L22.9772 4.38845C22.8994 4.22755 22.8477 4.05529 22.8242 3.87815C22.8242 3.87815 22.6966 4.26087 22.6455 4.38845L20.7574 8.49636Z" fill="#1C1C1C"/>
<path d="M35.9391 12.2727H33.6172V0.204102H35.9391V12.2727Z" fill="#1C1C1C"/>
<path d="M48.9262 12.2727H42.1392V0.204102H44.6906V11.0224H49.0537L48.9262 12.2727Z" fill="#1C1C1C"/>
<path d="M59.5405 12.2727H57.2441V7.16968L52.1411 0.204102H54.5395L58.2647 5.56223L61.9899 0.204102H64.3883L59.4384 7.16968L59.5405 12.2727Z" fill="#1C1C1C"/>
<path d="M88.6787 3.85267C88.6787 5.66423 87.6071 6.83792 85.5149 7.37373L89.3932 12.2726H86.8416L83.1675 7.62888H82.7592C82.2663 7.65495 81.7723 7.65495 81.2794 7.62888V12.3491H78.9575V0.38263C80.1453 0.174501 81.3493 0.0720429 82.5551 0.0764534C86.8671 0.0254236 88.6787 1.5308 88.6787 3.85267ZM81.3049 6.40417C81.7893 6.43025 82.2748 6.43025 82.7592 6.40417C85.3107 6.40417 86.3058 5.4346 86.3058 3.85267C86.3058 2.27074 85.1831 1.30117 82.7592 1.30117C82.275 1.26931 81.7891 1.26931 81.3049 1.30117V6.40417Z" fill="#1C1C1C"/>
<path d="M94.2407 12.2727V0.204102H102.61V1.45433H96.5626V5.4857H101.666V6.73594H96.5626V10.9714H102.61V12.2217L94.2407 12.2727Z" fill="#1C1C1C"/>
<path d="M116.26 8.03722L120.93 0L124.808 12.2472H122.613L120.215 4.84785L115.775 12.5024L111.361 4.97542L108.989 12.3237H106.768L110.672 0.0765515L115.316 8.03722C115.52 8.37936 115.674 8.74875 115.775 9.13436C115.897 8.75231 116.059 8.38447 116.26 8.03722Z" fill="#1C1C1C"/>
<path d="M131.952 12.2727H129.808L133.661 0.204102H135.804L131.952 12.2727Z" fill="#1C1C1C"/>
<path d="M154.176 12.4511L143.102 3.75057V12.2726H140.907V0.0253906L152.006 8.72599V0.203995H154.176V12.4511Z" fill="#1C1C1C"/>
<path d="M160.478 12.2726V0.229505C161.778 0.229505 163.029 0.0253906 164.05 0.0253906C170.224 0.0253906 172.418 2.83203 172.418 6.25104C172.418 9.67003 170.25 12.4511 163.973 12.4511C162.85 12.4511 161.676 12.3747 160.478 12.2726ZM162.799 11.0989H164.381C168.208 11.0989 170.046 9.2618 170.046 6.1745C170.046 3.08719 168.183 1.2501 164.432 1.2501C163.888 1.21467 163.343 1.21467 162.799 1.2501V11.0989Z" fill="#1C1C1C"/>
<path d="M177.803 12.2727V0.204102H186.146V1.45433H180.124V5.4857H185.227V6.73594H180.124V10.9714H186.146V12.2217L177.803 12.2727Z" fill="#1C1C1C"/>
<path d="M201.353 3.85267C201.353 5.66423 200.281 6.83792 198.163 7.37373L202.042 12.2726H199.49L195.842 7.62888H195.408H193.928V12.3491H191.606V0.38263C192.794 0.174501 193.997 0.0720429 195.204 0.0764534C199.516 0.0254236 201.353 1.5308 201.353 3.85267ZM193.953 6.40417H195.408C197.959 6.40417 198.98 5.4346 198.98 3.85267C198.98 2.27074 197.831 1.30117 195.408 1.30117C194.924 1.27009 194.438 1.27009 193.953 1.30117V6.40417Z" fill="#1C1C1C"/>
</svg>
