<svg width="1123" height="137" viewBox="0 0 1123 137" fill="none" xmlns="http://www.w3.org/2000/svg">
<path d="M3.06152 108V31.2196H12.0092V108H3.06152ZM7.61036 18.0229C5.77749 18.0229 4.21123 17.4064 2.91156 16.1734C1.61189 14.9071 0.962054 13.3908 0.962054 11.6246C0.962054 9.85835 1.61189 8.35873 2.91156 7.12572C4.21123 5.85937 5.77749 5.22619 7.61036 5.22619C9.44323 5.22619 11.0095 5.85937 12.3092 7.12572C13.6088 8.35873 14.2587 9.85835 14.2587 11.6246C14.2587 13.3908 13.6088 14.9071 12.3092 16.1734C11.0095 17.4064 9.44323 18.0229 7.61036 18.0229ZM30.3621 60.0122V108H21.4643V31.2196H30.1121V43.2665H30.9119C32.7115 39.3342 35.5107 36.185 39.3098 33.8189C43.1421 31.4195 47.8743 30.2198 53.5062 30.2198C58.6715 30.2198 63.2037 31.3029 67.1027 33.469C71.035 35.6018 74.0842 38.751 76.2504 42.9166C78.4498 47.0822 79.5495 52.1976 79.5495 58.2627V108H70.6518V58.8125C70.6518 52.5141 68.8856 47.5321 65.3531 43.8663C61.854 40.2006 57.1552 38.3677 51.2567 38.3677C47.2244 38.3677 43.642 39.2342 40.5095 40.9671C37.3769 42.7 34.8942 45.1993 33.0614 48.4652C31.2618 51.6977 30.3621 55.5467 30.3621 60.0122ZM120.497 31.2196V38.9676H82.7562V31.2196H120.497ZM94.5532 108V19.9724C94.5532 15.8402 95.5029 12.3577 97.4025 9.5251C99.3353 6.69249 101.851 4.54304 104.951 3.07674C108.05 1.61045 111.332 0.877304 114.798 0.877304C117.131 0.877304 119.064 1.07725 120.597 1.47715C122.163 1.84373 123.396 2.2103 124.296 2.57687L121.696 10.3749C121.03 10.1749 120.213 9.94166 119.247 9.67506C118.28 9.40847 117.064 9.27517 115.598 9.27517C111.732 9.27517 108.75 10.3582 106.65 12.5243C104.551 14.6905 103.501 17.7897 103.501 21.822L103.451 108H94.5532ZM150.859 109.6C144.227 109.6 138.362 107.917 133.263 104.551C128.198 101.185 124.232 96.5363 121.366 90.6044C118.5 84.6393 117.067 77.7577 117.067 69.9597C117.067 62.095 118.5 55.1801 121.366 49.215C124.232 43.2165 128.198 38.551 133.263 35.2185C138.362 31.8527 144.227 30.1698 150.859 30.1698C157.49 30.1698 163.339 31.8527 168.404 35.2185C173.47 38.5844 177.435 43.2498 180.301 49.215C183.201 55.1801 184.65 62.095 184.65 69.9597C184.65 77.7577 183.217 84.6393 180.351 90.6044C177.485 96.5363 173.503 101.185 168.404 104.551C163.339 107.917 157.49 109.6 150.859 109.6ZM150.859 101.452C156.191 101.452 160.706 100.019 164.405 97.1528C168.104 94.2868 170.904 90.4711 172.803 85.7057C174.736 80.9402 175.703 75.6916 175.703 69.9597C175.703 64.2278 174.736 58.9625 172.803 54.1637C170.904 49.3649 168.104 45.5159 164.405 42.6167C160.706 39.7174 156.191 38.2678 150.859 38.2678C145.56 38.2678 141.045 39.7174 137.312 42.6167C133.613 45.5159 130.797 49.3649 128.864 54.1637C126.965 58.9625 126.015 64.2278 126.015 69.9597C126.015 75.6916 126.965 80.9402 128.864 85.7057C130.797 90.4711 133.613 94.2868 137.312 97.1528C141.011 100.019 145.527 101.452 150.859 101.452ZM246.892 135.043C237.361 135.043 228.796 133.577 221.198 130.644C213.6 127.712 207.119 123.479 201.753 117.947C196.421 112.449 192.322 105.817 189.457 98.0525C186.624 90.2878 185.208 81.6067 185.208 72.0092C185.208 62.6116 186.641 54.0804 189.506 46.4157C192.406 38.751 196.521 32.1693 201.853 26.6707C207.219 21.1721 213.617 16.9399 221.048 13.974C228.513 10.9747 236.811 9.47511 245.942 9.47511C254.873 9.47511 262.871 11.0414 269.936 14.1739C277.001 17.2731 283.016 21.5054 287.981 26.8707C292.947 32.236 296.729 38.3511 299.328 45.216C301.961 52.0476 303.277 59.1958 303.277 66.6605C303.277 71.3927 302.911 76.0581 302.178 80.657C301.478 85.2558 300.262 89.4214 298.529 93.1538C296.796 96.8862 294.396 99.8687 291.331 102.102C288.265 104.301 284.382 105.401 279.684 105.401C277.217 105.401 274.785 105.001 272.385 104.201C270.019 103.368 267.986 102.018 266.287 100.152C264.621 98.2525 263.654 95.7198 263.388 92.5539H262.888C261.821 94.9533 260.322 97.1528 258.389 99.1523C256.456 101.118 254.073 102.685 251.241 103.851C248.441 105.017 245.192 105.551 241.493 105.451C237.294 105.351 233.512 104.418 230.146 102.651C226.814 100.885 223.964 98.4691 221.598 95.4032C219.266 92.3373 217.483 88.7882 216.25 84.7559C215.017 80.6903 214.4 76.3081 214.4 71.6093C214.4 67.0771 215.083 62.8948 216.45 59.0625C217.849 55.2301 219.765 51.881 222.198 49.015C224.664 46.1491 227.547 43.8663 230.846 42.1668C234.145 40.4672 237.694 39.4841 241.493 39.2175C244.892 38.9843 248.025 39.3175 250.891 40.2173C253.757 41.0837 256.189 42.3501 258.189 44.0163C260.188 45.6826 261.621 47.5654 262.488 49.6649H262.988V40.6172H271.136V86.9554C271.136 90.4545 271.819 93.1871 273.185 95.1533C274.585 97.0861 276.784 98.0525 279.783 98.0525C283.416 98.0525 286.365 96.8695 288.631 94.5034C290.931 92.1041 292.614 88.5716 293.68 83.9061C294.746 79.2073 295.28 73.4255 295.28 66.5606C295.28 61.3619 294.546 56.3298 293.08 51.4644C291.647 46.5657 289.548 42.0335 286.782 37.8679C284.016 33.6689 280.617 30.0032 276.584 26.8707C272.552 23.7048 267.936 21.2388 262.738 19.4726C257.572 17.7063 251.841 16.8232 245.542 16.8232C237.744 16.8232 230.663 18.1396 224.298 20.7722C217.933 23.4049 212.451 27.1706 207.852 32.0694C203.286 36.9681 199.771 42.8166 197.305 49.6149C194.838 56.3798 193.605 63.9279 193.605 72.2591C193.605 80.6903 194.838 88.305 197.305 95.1033C199.771 101.902 203.32 107.717 207.952 112.549C212.617 117.381 218.249 121.097 224.847 123.696C231.446 126.295 238.877 127.595 247.142 127.595C250.808 127.595 254.407 127.228 257.939 126.495C261.505 125.795 264.737 124.929 267.637 123.896C270.569 122.863 272.935 121.846 274.735 120.847L277.284 127.845C274.818 129.178 271.885 130.394 268.486 131.494C265.121 132.594 261.555 133.46 257.789 134.093C254.057 134.727 250.424 135.043 246.892 135.043ZM242.543 97.6027C247.075 97.6027 250.891 96.5529 253.99 94.4535C257.089 92.354 259.422 89.3381 260.988 85.4058C262.588 81.4734 263.388 76.7413 263.388 71.2094C263.388 65.6441 262.538 61.062 260.838 57.4629C259.172 53.8638 256.789 51.1978 253.69 49.4649C250.624 47.6987 246.992 46.8156 242.793 46.8156C238.727 46.8156 235.162 47.932 232.096 50.1647C229.063 52.3642 226.68 55.3134 224.947 59.0125C223.248 62.7115 222.398 66.7772 222.398 71.2094C222.398 75.9082 223.148 80.2571 224.648 84.2561C226.18 88.255 228.43 91.4875 231.396 93.9536C234.395 96.3863 238.111 97.6027 242.543 97.6027ZM335.502 109.6C329.203 109.6 323.688 107.933 318.956 104.601C314.224 101.268 310.525 96.6196 307.859 90.6544C305.226 84.6893 303.91 77.741 303.91 69.8097C303.91 61.9117 305.226 54.9968 307.859 49.065C310.525 43.0999 314.241 38.4677 319.006 35.1686C323.771 31.8361 329.32 30.1698 335.652 30.1698C340.317 30.1698 344.2 31.003 347.299 32.6692C350.398 34.3021 352.881 36.3349 354.747 38.7676C356.613 41.2004 358.063 43.5664 359.096 45.8658H359.896V5.6261H368.843V108H360.145V93.7536H359.096C358.063 96.0864 356.596 98.4858 354.697 100.952C352.797 103.385 350.281 105.434 347.149 107.1C344.05 108.766 340.167 109.6 335.502 109.6ZM336.552 101.452C341.517 101.452 345.749 100.102 349.248 97.4027C352.747 94.6701 355.413 90.921 357.246 86.1556C359.112 81.3568 360.046 75.8582 360.046 69.6598C360.046 63.528 359.129 58.1127 357.296 53.4139C355.463 48.6818 352.797 44.9827 349.298 42.3167C345.799 39.6174 341.55 38.2678 336.552 38.2678C331.419 38.2678 327.087 39.6674 323.555 42.4667C320.056 45.2327 317.39 48.9817 315.557 53.7138C313.757 58.446 312.858 63.7613 312.858 69.6598C312.858 75.6249 313.774 81.0069 315.607 85.8057C317.44 90.6044 320.106 94.4201 323.605 97.2527C327.137 100.052 331.453 101.452 336.552 101.452ZM401.555 109.75C396.923 109.75 392.691 108.85 388.858 107.05C385.026 105.217 381.977 102.585 379.71 99.1523C377.444 95.6865 376.311 91.4875 376.311 86.5555C376.311 82.7564 377.028 79.5573 378.461 76.9579C379.894 74.3586 381.927 72.2258 384.559 70.5595C387.192 68.8933 390.308 67.577 393.907 66.6106C397.506 65.6441 401.472 64.8943 405.804 64.3611C410.103 63.8279 413.735 63.3614 416.701 62.9615C419.7 62.5616 421.983 61.9284 423.549 61.062C425.116 60.1955 425.899 58.7959 425.899 56.863V55.0635C425.899 49.8315 424.332 45.7159 421.2 42.7166C418.101 39.6841 413.635 38.1678 407.803 38.1678C402.271 38.1678 397.756 39.3842 394.257 41.8169C390.791 44.2496 388.358 47.1155 386.959 50.4147L378.511 47.3655C380.244 43.1665 382.643 39.8174 385.709 37.318C388.775 34.7853 392.207 32.9691 396.006 31.8694C399.805 30.7364 403.654 30.1698 407.553 30.1698C410.486 30.1698 413.535 30.5531 416.701 31.3195C419.9 32.086 422.866 33.419 425.599 35.3185C428.331 37.1847 430.548 39.8007 432.247 43.1665C433.947 46.499 434.796 50.7313 434.796 55.8633V108H425.899V95.8531H425.349C424.282 98.1192 422.7 100.319 420.6 102.451C418.501 104.584 415.868 106.334 412.702 107.7C409.536 109.066 405.82 109.75 401.555 109.75ZM402.755 101.602C407.487 101.602 411.586 100.552 415.051 98.4524C418.517 96.353 421.183 93.5703 423.049 90.1046C424.949 86.6055 425.899 82.7564 425.899 78.5575V67.4603C425.232 68.0935 424.116 68.66 422.55 69.1599C421.017 69.6598 419.234 70.1097 417.201 70.5096C415.201 70.8761 413.202 71.1927 411.202 71.4593C409.203 71.7259 407.403 71.9592 405.804 72.1591C401.472 72.6923 397.773 73.5255 394.707 74.6585C391.641 75.7915 389.291 77.3578 387.658 79.3573C386.026 81.3235 385.209 83.8562 385.209 86.9554C385.209 91.6208 386.875 95.2366 390.208 97.8026C393.54 100.335 397.723 101.602 402.755 101.602ZM444.489 108V31.2196H453.437V108H444.489ZM449.038 18.0229C447.205 18.0229 445.639 17.4064 444.339 16.1734C443.039 14.9071 442.39 13.3908 442.39 11.6246C442.39 9.85835 443.039 8.35873 444.339 7.12572C445.639 5.85937 447.205 5.22619 449.038 5.22619C450.871 5.22619 452.437 5.85937 453.737 7.12572C455.036 8.35873 455.686 9.85835 455.686 11.6246C455.686 13.3908 455.036 14.9071 453.737 16.1734C452.437 17.4064 450.871 18.0229 449.038 18.0229ZM471.79 5.6261V108H462.892V5.6261H471.79ZM487.456 136.793C485.689 136.793 484.04 136.626 482.507 136.293C480.974 135.96 479.757 135.593 478.858 135.193L481.257 127.345C484.29 128.278 486.989 128.611 489.355 128.345C491.721 128.112 493.821 127.045 495.653 125.146C497.486 123.279 499.119 120.414 500.552 116.548L503.351 108.75L475.109 31.2196H484.756L507.55 96.253H508.25L531.044 31.2196H540.692L508.2 120.147C506.834 123.846 505.151 126.929 503.152 129.395C501.152 131.894 498.836 133.743 496.203 134.943C493.604 136.176 490.688 136.793 487.456 136.793ZM544.024 108V31.2196H552.671V43.0166H553.321C554.854 39.1509 557.52 36.035 561.319 33.6689C565.152 31.2696 569.484 30.0699 574.316 30.0699C575.049 30.0699 575.865 30.0865 576.765 30.1199C577.665 30.1532 578.415 30.1865 579.015 30.2198V39.2675C578.615 39.2009 577.915 39.1009 576.915 38.9676C575.915 38.8343 574.832 38.7676 573.666 38.7676C569.667 38.7676 566.101 39.6174 562.969 41.317C559.87 42.9832 557.42 45.2993 555.621 48.2652C553.821 51.2311 552.921 54.6136 552.921 58.4126V108H544.024ZM608.827 109.6C601.662 109.6 595.464 107.933 590.232 104.601C585 101.235 580.951 96.5862 578.085 90.6544C575.252 84.6893 573.836 77.8244 573.836 70.0597C573.836 62.3283 575.252 55.4634 578.085 49.4649C580.951 43.4331 584.9 38.7177 589.932 35.3185C594.997 31.8861 600.846 30.1698 607.477 30.1698C611.643 30.1698 615.659 30.9363 619.524 32.4692C623.39 33.9689 626.856 36.2849 629.922 39.4175C633.021 42.5167 635.47 46.4324 637.27 51.1645C639.069 55.8633 639.969 61.4285 639.969 67.8602V72.2591H579.984V64.4111H630.871C630.871 59.479 629.872 55.0468 627.872 51.1145C625.906 47.1488 623.157 44.0163 619.624 41.7169C616.125 39.4175 612.076 38.2678 607.477 38.2678C602.612 38.2678 598.33 39.5674 594.631 42.1668C590.932 44.7661 588.032 48.1986 585.933 52.4642C583.867 56.7297 582.817 61.3952 582.784 66.4606V71.1594C582.784 77.2578 583.833 82.5898 585.933 87.1553C588.066 91.6875 591.082 95.2033 594.981 97.7026C598.88 100.202 603.495 101.452 608.827 101.452C612.459 101.452 615.642 100.885 618.375 99.7521C621.141 98.6191 623.457 97.1028 625.323 95.2033C627.222 93.2704 628.655 91.1543 629.622 88.8549L638.07 91.6042C636.903 94.8367 634.987 97.8193 632.321 100.552C629.688 103.285 626.389 105.484 622.424 107.15C618.491 108.783 613.959 109.6 608.827 109.6ZM645.5 108V31.2196H654.148V43.0166H654.948C656.481 39.0509 659.03 35.935 662.596 33.6689C666.195 31.3695 670.511 30.2198 675.543 30.2198C680.841 30.2198 685.19 31.4695 688.589 33.9689C692.022 36.4349 694.588 39.834 696.287 44.1663H696.937C698.67 39.9007 701.486 36.5182 705.385 34.0189C709.317 31.4862 714.083 30.2198 719.681 30.2198C726.813 30.2198 732.445 32.4693 736.577 36.9681C740.709 41.4336 742.775 47.9653 742.775 56.5631V108H733.878V56.5631C733.878 50.498 732.328 45.9492 729.229 42.9166C726.13 39.884 722.047 38.3677 716.982 38.3677C711.117 38.3677 706.601 40.1673 703.435 43.7664C700.27 47.3655 698.687 51.931 698.687 57.4629V108H689.589V55.7633C689.589 50.5646 688.139 46.3657 685.24 43.1665C682.341 39.9673 678.259 38.3677 672.993 38.3677C669.461 38.3677 666.278 39.2342 663.446 40.9671C660.646 42.7 658.43 45.116 656.797 48.2152C655.198 51.2811 654.398 54.8136 654.398 58.8125V108H645.5ZM752.356 108V31.2196H761.303V108H752.356ZM756.904 18.0229C755.071 18.0229 753.505 17.4064 752.206 16.1734C750.906 14.9071 750.256 13.3908 750.256 11.6246C750.256 9.85835 750.906 8.35873 752.206 7.12572C753.505 5.85937 755.071 5.22619 756.904 5.22619C758.737 5.22619 760.303 5.85937 761.603 7.12572C762.903 8.35873 763.553 9.85835 763.553 11.6246C763.553 13.3908 762.903 14.9071 761.603 16.1734C760.303 17.4064 758.737 18.0229 756.904 18.0229ZM779.656 60.0122V108H770.758V31.2196H779.406V43.2665H780.206C782.005 39.3342 784.805 36.185 788.604 33.8189C792.436 31.4195 797.168 30.2198 802.8 30.2198C807.965 30.2198 812.498 31.3029 816.397 33.469C820.329 35.6018 823.378 38.751 825.544 42.9166C827.744 47.0822 828.843 52.1976 828.843 58.2627V108H819.946V58.8125C819.946 52.5141 818.18 47.5321 814.647 43.8663C811.148 40.2006 806.449 38.3677 800.551 38.3677C796.518 38.3677 792.936 39.2342 789.803 40.9671C786.671 42.7 784.188 45.1993 782.355 48.4652C780.556 51.6977 779.656 55.5467 779.656 60.0122ZM865.842 109.6C859.543 109.6 854.028 107.933 849.296 104.601C844.564 101.268 840.865 96.6196 838.199 90.6544C835.566 84.6893 834.25 77.741 834.25 69.8097C834.25 61.9117 835.566 54.9968 838.199 49.065C840.865 43.0999 844.58 38.4677 849.346 35.1686C854.111 31.8361 859.66 30.1698 865.992 30.1698C870.657 30.1698 874.539 31.003 877.639 32.6692C880.738 34.3021 883.22 36.3349 885.087 38.7676C886.953 41.2004 888.402 43.5664 889.436 45.8658H890.235V5.6261H899.183V108H890.485V93.7536H889.436C888.402 96.0864 886.936 98.4858 885.037 100.952C883.137 103.385 880.621 105.434 877.489 107.1C874.389 108.766 870.507 109.6 865.842 109.6ZM866.891 101.452C871.857 101.452 876.089 100.102 879.588 97.4027C883.087 94.6701 885.753 90.921 887.586 86.1556C889.452 81.3568 890.385 75.8582 890.385 69.6598C890.385 63.528 889.469 58.1127 887.636 53.4139C885.803 48.6818 883.137 44.9827 879.638 42.3167C876.139 39.6174 871.89 38.2678 866.891 38.2678C861.759 38.2678 857.427 39.6674 853.895 42.4667C850.395 45.2327 847.73 48.9817 845.897 53.7138C844.097 58.446 843.197 63.7613 843.197 69.6598C843.197 75.6249 844.114 81.0069 845.947 85.8057C847.779 90.6044 850.445 94.4201 853.945 97.2527C857.477 100.052 861.793 101.452 866.891 101.452ZM941.492 109.6C934.327 109.6 928.129 107.933 922.897 104.601C917.665 101.235 913.616 96.5862 910.75 90.6544C907.918 84.6893 906.501 77.8244 906.501 70.0597C906.501 62.3283 907.918 55.4634 910.75 49.4649C913.616 43.4331 917.565 38.7177 922.597 35.3185C927.662 31.8861 933.511 30.1698 940.143 30.1698C944.308 30.1698 948.324 30.9363 952.19 32.4692C956.055 33.9689 959.521 36.2849 962.587 39.4175C965.686 42.5167 968.135 46.4324 969.935 51.1645C971.735 55.8633 972.634 61.4285 972.634 67.8602V72.2591H912.65V64.4111H963.537C963.537 59.479 962.537 55.0468 960.537 51.1145C958.571 47.1488 955.822 44.0163 952.29 41.7169C948.79 39.4175 944.741 38.2678 940.143 38.2678C935.277 38.2678 930.995 39.5674 927.296 42.1668C923.597 44.7661 920.698 48.1986 918.598 52.4642C916.532 56.7297 915.482 61.3952 915.449 66.4606V71.1594C915.449 77.2578 916.499 82.5898 918.598 87.1553C920.731 91.6875 923.747 95.2033 927.646 97.7026C931.545 100.202 936.16 101.452 941.492 101.452C945.125 101.452 948.307 100.885 951.04 99.7521C953.806 98.6191 956.122 97.1028 957.988 95.2033C959.888 93.2704 961.321 91.1543 962.287 88.8549L970.735 91.6042C969.568 94.8367 967.652 97.8193 964.986 100.552C962.354 103.285 959.054 105.484 955.089 107.15C951.156 108.783 946.624 109.6 941.492 109.6ZM978.165 108V31.2196H986.813V43.0166H987.463C988.996 39.1509 991.662 36.035 995.461 33.6689C999.293 31.2696 1003.63 30.0699 1008.46 30.0699C1009.19 30.0699 1010.01 30.0865 1010.91 30.1199C1011.81 30.1532 1012.56 30.1865 1013.16 30.2198V39.2675C1012.76 39.2009 1012.06 39.1009 1011.06 38.9676C1010.06 38.8343 1008.97 38.7676 1007.81 38.7676C1003.81 38.7676 1000.24 39.6174 997.111 41.317C994.011 42.9832 991.562 45.2993 989.762 48.2652C987.963 51.2311 987.063 54.6136 987.063 58.4126V108H978.165ZM1012.56 108.75C1010.6 108.75 1008.9 108.05 1007.47 106.65C1006.07 105.217 1005.37 103.518 1005.37 101.552C1005.37 99.5522 1006.07 97.8526 1007.47 96.4529C1008.9 95.0533 1010.6 94.3535 1012.56 94.3535C1014.56 94.3535 1016.26 95.0533 1017.66 96.4529C1019.06 97.8526 1019.76 99.5522 1019.76 101.552C1019.76 102.851 1019.43 104.051 1018.76 105.151C1018.13 106.25 1017.26 107.134 1016.16 107.8C1015.1 108.433 1013.9 108.75 1012.56 108.75ZM1029.19 108V31.2196H1037.84V43.0166H1038.49C1040.02 39.1509 1042.69 36.035 1046.49 33.6689C1050.32 31.2696 1054.65 30.0699 1059.48 30.0699C1060.22 30.0699 1061.03 30.0865 1061.93 30.1199C1062.83 30.1532 1063.58 30.1865 1064.18 30.2198V39.2675C1063.78 39.2009 1063.08 39.1009 1062.08 38.9676C1061.08 38.8343 1060 38.7676 1058.83 38.7676C1054.84 38.7676 1051.27 39.6174 1048.14 41.317C1045.04 42.9832 1042.59 45.2993 1040.79 48.2652C1038.99 51.2311 1038.09 54.6136 1038.09 58.4126V108H1029.19ZM1114.08 78.6575V31.2196H1122.98V108H1114.08V95.2532H1113.38C1111.58 99.1856 1108.73 102.468 1104.83 105.101C1100.93 107.7 1096.17 109 1090.53 109C1085.64 109 1081.29 107.933 1077.49 105.801C1073.69 103.634 1070.71 100.469 1068.54 96.303C1066.37 92.1374 1065.29 87.022 1065.29 80.9569V31.2196H1074.19V80.407C1074.19 86.4055 1075.95 91.2376 1079.49 94.9033C1083.02 98.5357 1087.55 100.352 1093.08 100.352C1096.55 100.352 1099.88 99.5188 1103.08 97.8526C1106.28 96.1863 1108.91 93.7536 1110.98 90.5544C1113.05 87.3219 1114.08 83.3563 1114.08 78.6575Z" fill="black"/>
</svg>
